<?xml version="1.0" encoding="UTF-8" standalone="no"?>
<svg
   xmlns:dc="http://purl.org/dc/elements/1.1/"
   xmlns:cc="http://creativecommons.org/ns#"
   xmlns:rdf="http://www.w3.org/1999/02/22-rdf-syntax-ns#"
   xmlns:svg="http://www.w3.org/2000/svg"
   xmlns="http://www.w3.org/2000/svg"
   viewBox="0 0 42.666668 42.666668"
   height="42.666668"
   width="42.666668"
   xml:space="preserve"
   id="svg2"
   version="1.1"><metadata
     id="metadata8"><rdf:RDF><cc:Work
         rdf:about=""><dc:format>image/svg+xml</dc:format><dc:type
           rdf:resource="http://purl.org/dc/dcmitype/StillImage" /></cc:Work></rdf:RDF></metadata><defs
     id="defs6"><clipPath
       id="clipPath18"
       clipPathUnits="userSpaceOnUse"><path
         id="path16"
         d="M 0,32 H 32 V 0 H 0 Z" /></clipPath></defs><g
     transform="matrix(1.3333333,0,0,-1.3333333,0,42.666667)"
     id="g10"><g
       id="g12"><g
         clip-path="url(#clipPath18)"
         id="g14"><g
           transform="translate(22.459,11.752)"
           id="g20"><path
             id="path22"
             style="fill:#1b75bc;fill-opacity:1;fill-rule:nonzero;stroke:none"
             d="m 0,0 -2.486,-2.576 -3.973,4.248 -4.072,-4.248 -2.387,2.506 4.023,4.342 -4.023,4.257 2.387,2.544 v 10e-4 l 4.072,-4.25 3.973,4.25 L 0,8.529 -4.057,4.249 Z m -6.476,-6.824 -3.728,3.9 1.962,2.09 1.766,-1.951 1.767,1.951 1.961,-2.09 z m 0,22.144 3.728,-3.899 -1.961,-2.09 -1.767,1.951 -1.766,-1.951 -1.962,2.09 z m 0.017,3.691 c -8.153,0 -14.763,-6.61 -14.763,-14.762 0,-8.153 6.61,-14.765 14.763,-14.765 8.152,0 14.764,6.612 14.764,14.765 0,8.152 -6.612,14.762 -14.764,14.762" /></g></g></g></g></svg>