<?xml version="1.0" encoding="utf-8"?>
<!-- Generator: Adobe Illustrator 16.0.0, SVG Export Plug-In . SVG Version: 6.00 Build 0)  -->
<!DOCTYPE svg PUBLIC "-//W3C//DTD SVG 1.1//EN" "http://www.w3.org/Graphics/SVG/1.1/DTD/svg11.dtd">
<svg version="1.1" id="Layer_1" xmlns="http://www.w3.org/2000/svg" xmlns:xlink="http://www.w3.org/1999/xlink" x="0px" y="0px"
	 width="30px" height="30px" viewBox="985 985 30 30" enable-background="new 985 985 30 30" xml:space="preserve">
<g>
	<path fill="#00FFBA" d="M1002.321,991.456c-1.779-4.217-6.641-6.193-10.858-4.414c-0.987,0.417-1.885,1.021-2.642,1.779
		c-1.164,1.165-1.164,3.052,0,4.216c1.164,1.165,3.052,1.164,4.215,0c0.212-0.213,0.464-0.382,0.742-0.5
		c0.579-0.242,1.231-0.242,1.811,0c0.417,0.178,0.773,0.472,1.027,0.848c0.261,0.384,0.398,0.837,0.396,1.3
		c0,1.647,1.334,2.981,2.98,2.981s2.981-1.335,2.981-2.981C1002.975,993.576,1002.753,992.478,1002.321,991.456z"/>
	<g>
		<path fill="#00CFAB" d="M999.993,1002.335c-1.646,0-2.98,1.335-2.98,2.981c0.001,0.311-0.061,0.618-0.183,0.905
			c-0.177,0.417-0.471,0.773-0.847,1.028c-0.186,0.126-0.391,0.225-0.606,0.291c-0.841,0.264-1.757,0.028-2.368-0.606l-0.002-0.002
			c-0.205-0.211-0.367-0.459-0.479-0.73c-0.234-0.575-0.232-1.219,0.008-1.791c0.177-0.418,0.471-0.774,0.847-1.028
			c0.384-0.261,0.836-0.397,1.3-0.397c1.646,0,2.98-1.334,2.98-2.98c0-1.646-1.334-2.981-2.98-2.981
			c-4.58-0.001-8.292,3.71-8.293,8.289c-0.001,2.149,0.833,4.214,2.324,5.76c3.177,3.297,8.423,3.395,11.72,0.219
			c1.623-1.564,2.54-3.722,2.539-5.975C1002.975,1003.67,1001.64,1002.335,999.993,1002.335"/>
		<path fill="#00CFAB" d="M1012.697,990.899c-0.579-1.127-1.408-2.107-2.425-2.865c-0.003-0.001-0.005-0.003-0.007-0.005
			c-3.673-2.732-8.865-1.969-11.597,1.704c-1.065,1.431-1.64,3.168-1.638,4.953c0,1.646,1.334,2.981,2.98,2.981
			c1.646,0,2.981-1.334,2.981-2.981c-0.001-0.311,0.062-0.619,0.182-0.906c0.177-0.417,0.472-0.774,0.847-1.028
			c0.188-0.126,0.391-0.225,0.606-0.292c0.711-0.221,1.484-0.09,2.081,0.354l0,0c0.287,0.214,0.522,0.491,0.688,0.81
			c0.312,0.614,0.338,1.333,0.072,1.967c-0.177,0.417-0.472,0.774-0.847,1.028c-0.188,0.127-0.392,0.225-0.606,0.292
			c-0.225,0.069-0.459,0.105-0.694,0.104c-1.646,0-2.98,1.335-2.98,2.982c0,1.646,1.335,2.98,2.98,2.98
			c4.581-0.001,8.294-3.716,8.291-8.297C1013.61,993.364,1013.298,992.068,1012.697,990.899z"/>
	</g>
	<g>
		<path fill="#00FFBA" d="M1012.957,1002.087c-1.295-3.069-4.305-5.065-7.637-5.063c-1.646,0-2.98,1.334-2.98,2.981
			c0,1.646,1.334,2.98,2.98,2.98c0.311,0,0.619,0.062,0.905,0.183c0.417,0.178,0.773,0.472,1.026,0.848
			c0.435,0.647,0.518,1.469,0.222,2.19c-0.113,0.272-0.277,0.521-0.482,0.732l0,0c-0.214,0.221-0.469,0.396-0.75,0.519
			c-0.583,0.249-1.242,0.252-1.827,0.007c-0.417-0.177-0.773-0.472-1.027-0.847c-0.259-0.385-0.397-0.837-0.396-1.301
			c0-1.646-1.334-2.981-2.981-2.981c-1.646,0-2.98,1.335-2.98,2.981c-0.004,4.577,3.703,8.29,8.28,8.295
			c2.244,0.003,4.393-0.905,5.956-2.517l0,0C1013.586,1008.703,1014.253,1005.157,1012.957,1002.087z"/>
		<path fill="#00FFBA" d="M994.684,997.015c-0.311,0.001-0.619-0.061-0.905-0.182c-0.417-0.178-0.774-0.472-1.028-0.848
			c-0.624-0.924-0.503-2.161,0.287-2.948c1.164-1.164,1.164-3.052,0-4.216c-1.165-1.164-3.052-1.165-4.215,0
			c-3.24,3.236-3.243,8.484-0.008,11.724c1.556,1.559,3.668,2.434,5.871,2.432c1.646,0,2.98-1.334,2.98-2.98
			C997.664,998.35,996.33,997.015,994.684,997.015z"/>
	</g>
</g>
</svg>
