<?xml version="1.0" encoding="utf-8"?>
<!-- Generator: Adobe Illustrator 16.0.0, SVG Export Plug-In . SVG Version: 6.00 Build 0)  -->
<!DOCTYPE svg PUBLIC "-//W3C//DTD SVG 1.1 Tiny//EN" "http://www.w3.org/Graphics/SVG/1.1/DTD/svg11-tiny.dtd">
<svg version="1.1" baseProfile="tiny" id="Layer_1" xmlns="http://www.w3.org/2000/svg" xmlns:xlink="http://www.w3.org/1999/xlink"
	 x="0px" y="0px" width="32px" height="32px" viewBox="0 0 32 32" xml:space="preserve">
<g>
	<circle fill="#FFFFFF" cx="15.94" cy="16" r="11.646"/>
	<path fill="#173247" d="M15.999,1.832C8.176,1.832,1.833,8.176,1.833,16S8.176,30.168,16,30.168S30.168,23.824,30.168,16
		S23.823,1.832,15.999,1.832z M26.025,21.818c-2.014,3.481-5.774,5.828-10.085,5.828C9.508,27.646,4.293,22.432,4.293,16
		c0-1.121,0.162-2.203,0.458-3.23h5.839c1.023,0.283,1.263,1.326,1.295,1.496v0.096l-1.691,1.691l1.691,1.691v2.391h2.333v0.018
		h0.075l1.672,1.675l1.674-1.675h7.646C26.048,20.553,26.096,21.313,26.025,21.818z M21.857,19.332
		c-1.567-0.023-1.809-1.588-1.809-1.588l1.689-1.691l-1.689-1.691v-2.391h-2.393l-1.691-1.691l-1.689,1.695h-6.8
		c-1.787-0.307-1.453-1.855-1.327-2.279c2.073-3.213,5.682-5.342,9.791-5.342c6.432,0,11.646,5.215,11.646,11.646
		c0,1.158-0.172,2.275-0.488,3.332H21.857z"/>
	<polygon fill="#4FAC93" points="19.189,17.395 20.54,16.045 19.189,14.697 19.189,12.789 17.282,12.789 15.935,11.439 
		14.585,12.789 12.677,12.789 12.677,14.695 11.328,16.045 12.677,17.395 12.677,19.303 14.585,19.303 15.935,20.65 17.282,19.303 
		19.189,19.303 	"/>
	<polygon fill="#6BCDB2" points="19.3,16.045 18.71,15.457 19.009,14.68 18.313,14.41 18.313,13.666 17.479,13.666 17.141,12.904 
		16.462,13.207 15.935,12.682 15.345,13.27 14.566,12.971 14.299,13.666 13.555,13.666 13.555,14.5 12.793,14.838 13.095,15.52 
		12.569,16.045 13.158,16.635 12.859,17.412 13.555,17.682 13.555,18.426 14.388,18.426 14.726,19.186 15.407,18.885 15.935,19.41 
		16.521,18.822 17.3,19.121 17.568,18.426 18.313,18.426 18.313,17.592 19.075,17.254 18.771,16.572 	"/>
	<polygon fill="#AEE4D7" points="17.473,17.584 17.473,17.045 17.964,16.826 17.768,16.385 18.107,16.045 17.729,15.664 
		17.921,15.162 17.473,14.99 17.473,14.508 16.934,14.508 16.714,14.016 16.274,14.211 15.935,13.871 15.554,14.252 15.05,14.059 
		14.877,14.508 14.396,14.508 14.396,15.047 13.904,15.266 14.1,15.705 13.759,16.045 14.14,16.426 13.947,16.928 14.396,17.102 
		14.397,17.584 14.935,17.584 15.153,18.076 15.593,17.881 15.935,18.219 16.315,17.84 16.816,18.031 16.988,17.584 	"/>
</g>
</svg>
