<svg xmlns="http://www.w3.org/2000/svg" width="22" height="21" viewBox="0 0 22 21">
    <path fill="#4e4e4e" fill-rule="nonzero" d="M17.707 15.173c1.084-1.544 1.734-3.396 1.734-5.416 0-5.202-4.286-9.43-9.56-9.43C4.605.327.32 4.555.32 9.757c0 5.203 4.286 9.43 9.56 9.43a9.694 9.694 0 0 0 5.828-1.947l3.155 3.112c.29.285.65.427 1.012.427.36 0 .746-.142 1.011-.427.554-.547.554-1.45 0-2.02l-3.179-3.159zM9.88 17.287c-4.214 0-7.634-3.373-7.634-7.53s3.42-7.53 7.634-7.53c4.215 0 7.635 3.373 7.635 7.53s-3.42 7.53-7.635 7.53z"/>
</svg>
